<svg width="44" height="4" viewBox="0 0 44 4" fill="none" xmlns="http://www.w3.org/2000/svg">
<path d="M3.43478 2L1.69565 3.01588L0 4V2V0L1.69565 1.01588L3.43478 2Z" fill="#651C2A"/>
<path d="M13.5654 2L11.8263 3.01588L10.1306 4V2V0L11.8263 1.01588L13.5654 2Z" fill="#651C2A"/>
<path d="M23.6955 2L21.9999 3.01588L20.2607 4V2V0L21.9999 1.01588L23.6955 2Z" fill="#651C2A"/>
<path d="M33.8261 2L32.1305 3.01588L30.3914 4V2V0L32.1305 1.01588L33.8261 2Z" fill="#651C2A"/>
<path d="M44 2L42.2609 3.01588L40.5217 4V2V0L42.2609 1.01588L44 2Z" fill="#651C2A"/>
</svg>
